<?xml version="1.0" encoding="UTF-8"?>
<svg viewBox="0 0 456 340" version="1.1" xmlns="http://www.w3.org/2000/svg" xmlns:xlink="http://www.w3.org/1999/xlink">
        <g transform="translate(-2672.000000, -80.000000)" fill-rule="nonzero">
            <path d="M3006.16667,80 L3127.08185,80 L3080.41518,220 L2980.74852,220 L2947.41518,320 L2847.74852,320 L2814.41518,420 L2672.25148,420 L2785.58482,80 L2906.5,80 L3006.16667,80 Z M2938.58482,220 L2938.25148,220 L2971.58482,120 L2914.08185,120 L2860.74852,280 L2918.58482,280 L2938.58482,220 Z M2871.91815,120 L2814.41518,120 L2727.74852,380 L2785.58482,380 L2805.58482,320 L2805.25148,320 L2871.91815,120 Z M3071.58482,120 L3013.74852,120 L2993.74852,180 L3051.58482,180 L3071.58482,120 Z"></path>
    </g>
</svg>