<?xml version="1.0" standalone="no"?>
<!DOCTYPE svg PUBLIC "-//W3C//DTD SVG 20010904//EN"
 "http://www.w3.org/TR/2001/REC-SVG-20010904/DTD/svg10.dtd">
<svg version="1.0" xmlns="http://www.w3.org/2000/svg"
 width="2000.000000pt" height="2000.000000pt" viewBox="0 0 2000.000000 2000.000000"
 preserveAspectRatio="xMidYMid meet">
<metadata>
Created by potrace 1.11, written by Peter Selinger 2001-2013
</metadata>
<g transform="translate(0.000000,2000.000000) scale(0.100000,-0.100000)"
fill="#000000" stroke="none">
<path d="M4972 17433 c-12 -32 -4876 -14625 -4927 -14781 l-33 -102 3117 0
3117 0 119 357 c66 196 120 361 122 367 9 40 1218 3652 1224 3656 4 3 989 5
2188 5 l2181 0 729 2188 c401 1204 731 2190 734 2193 2 3 985 5 2184 5 l2180
0 11 22 c9 18 1943 5814 2017 6045 l23 72 -7488 0 -7488 0 -10 -27z m3792
-1743 c-31 -76 -2907 -8722 -2909 -8746 -3 -27 -862 -2621 -872 -2634 -7 -8
-2533 -6 -2533 2 0 6 1344 4046 1357 4078 3 8 7 20 9 25 4 19 2426 7280 2429
7285 2 3 571 6 1264 5 1125 0 1261 -1 1255 -15z m4368 0 c-2 -12 -507 -1537
-529 -1600 -82 -231 -915 -2744 -917 -2766 -2 -17 -198 -616 -437 -1332 l-434
-1302 -1267 0 c-698 0 -1268 1 -1268 3 0 1 92 279 205 617 113 338 219 656
235 705 16 50 97 293 180 540 83 248 173 518 200 600 74 224 997 2995 1009
3029 6 16 122 363 257 770 136 408 251 743 255 746 5 3 572 5 1261 5 1096 -1
1253 -2 1250 -15z m4388 7 c0 -13 -863 -2601 -871 -2612 -5 -7 -424 -10 -1271
-10 -1105 1 -1263 2 -1260 15 2 8 197 596 433 1305 237 710 431 1295 433 1300
4 13 2536 15 2536 2z"/>
</g>
</svg>
